<?xml version="1.0" encoding="UTF-8"?>
<svg id="Layer_2" data-name="Layer 2" xmlns="http://www.w3.org/2000/svg" viewBox="0 0 137.63 133.82">
  <g id="Layer_1-2" data-name="Layer 1">
    <g>
      <path d="M44.33,13.44c11.02,6.21,22.03,12.42,33.05,18.64,0,2.71.01,5.43.02,8.14,2.55,1.5,5.11,3,7.66,4.5-.28-14.2-.55-28.4-.83-42.61-5.92-1.46-15.33-2.98-26.68-1.5-14.59,1.91-25.17,7.85-30.7,11.51,3.19,1.89,6.38,3.77,9.57,5.66,2.64-1.45,5.28-2.89,7.91-4.34ZM76.37,9.73c.15,3.87.3,7.74.45,11.62-6.31-3.8-12.62-7.6-18.93-11.39,6.16-.07,12.32-.15,18.48-.22Z" fill="#fff" stroke-width="0"/>
      <path d="M119.94,38.07c1.39,2.61,2.78,5.22,4.17,7.83-9.22,5.33-18.44,10.67-27.66,16,.03,2.67.06,5.33.09,8l38.13-21.53c-.73-2.83-1.81-6.11-3.4-9.62-2.27-4.99-4.92-8.95-7.23-11.91-6.55,3.74-13.11,7.49-19.66,11.23-.2-6.27-.4-12.54-.6-18.81,1.82,1.76,3.63,3.52,5.45,5.28,2.84-1.7,5.67-3.4,8.51-5.11-2.37-2.67-5.72-5.94-10.21-9.02-4.18-2.87-8.14-4.76-11.32-6,.03,15.79.06,31.57.09,47.36,7.89-4.57,15.77-9.13,23.66-13.7Z" fill="#fff" stroke-width="0"/>
      <path d="M19.34,19.58c-2.08,2.06-4.37,4.63-6.61,7.77-3.18,4.47-5.27,8.75-6.67,12.24,6.53,3.79,13.06,7.57,19.59,11.36-5.32,3.32-10.64,6.64-15.96,9.96.61-2.45,1.22-4.91,1.83-7.36-2.9-1.6-5.79-3.2-8.69-4.79-1.12,3.39-2.26,7.93-2.67,13.36-.38,5.06-.02,9.43.5,12.8,13.64-7.95,27.27-15.91,40.91-23.86-7.91-4.53-15.82-9.05-23.73-13.58,1.56-2.51,3.12-5.03,4.68-7.54,9.24,5.29,18.49,10.59,27.73,15.88,2.29-1.36,4.58-2.73,6.87-4.09-12.59-7.38-25.18-14.77-37.77-22.15Z" fill="#fff" stroke-width="0"/>
      <path d="M69.3,124.07c-2.96-.06-5.91-.12-8.87-.18-.16-10.65-.32-21.3-.48-31.95-2.34-1.28-4.68-2.55-7.03-3.83.07,14.6.14,29.19.21,43.79,2.83.74,6.21,1.4,10.06,1.72,5.47.45,10.22.07,13.93-.51-.07-7.55-.15-15.09-.22-22.64,5.57,2.88,11.14,5.77,16.71,8.65-2.42.73-4.84,1.45-7.26,2.18.1,3.31.21,6.61.31,9.92,3.49-.77,7.97-2.1,12.86-4.52,4.55-2.25,8.12-4.79,10.76-6.96-13.8-7.67-27.59-15.35-41.39-23.02.14,9.11.28,18.23.43,27.34Z" fill="#fff" stroke-width="0"/>
      <path d="M34.66,74.77c2.36-1.35,4.71-2.69,7.07-4.04.04-2.96.08-5.92.13-8.88-12.21,7.26-24.42,14.52-36.63,21.78,1.66,5.87,4.98,14.8,11.88,23.94,8.87,11.74,19.26,18,25.18,21,.06-3.71.12-7.41.19-11.12l-7.69-4.74c-.04-12.65-.09-25.29-.13-37.94ZM15.27,87.05c3.21-2.18,6.41-4.35,9.62-6.53.12,7.36.24,14.73.36,22.09-3.32-5.19-6.65-10.37-9.97-15.56Z" fill="#fff" stroke-width="0"/>
      <path d="M137.47,58.45c-3.22,1.84-6.44,3.68-9.66,5.51-.05,3.01-.1,6.02-.15,9.03-10.85,6.49-21.71,12.98-32.56,19.48-2.36-1.34-4.72-2.68-7.08-4.02-2.57,1.47-5.14,2.95-7.7,4.42,12.47,6.79,24.95,13.59,37.42,20.38,4.2-4.43,10.19-11.84,14.52-22.43,5.57-13.62,5.65-25.75,5.21-32.37ZM115.68,103.25l-10.74-4.44c6.08-4.15,12.17-8.29,18.25-12.44-2.5,5.63-5.01,11.26-7.51,16.89Z" fill="#fff" stroke-width="0"/>
    </g>
  </g>
</svg>